<svg id="Capa_1" xmlns="http://www.w3.org/2000/svg" viewBox="0 0 219.781 219.781"><path d="M202.314 154.591l-22.322-12.888 19.345-11.407a7.5 7.5 0 1 0-7.62-12.921l-26.646 15.713-15.683-9.054V95.747l15.674-9.05 26.656 15.712a7.497 7.497 0 0 0 10.27-2.654 7.5 7.5 0 0 0-2.652-10.27L179.987 78.08l22.327-12.891a7.5 7.5 0 0 0-7.5-12.99L172.49 65.088l-.202-22.461c-.037-4.142-3.432-7.495-7.567-7.432a7.5 7.5 0 0 0-7.433 7.567l.278 30.941-15.68 9.053-24.496-14.144V50.511l26.936-15.224a7.501 7.501 0 0 0-7.381-13.059L117.39 33.281V7.5c0-4.142-3.357-7.5-7.5-7.5s-7.5 3.358-7.5 7.5v25.781L82.834 22.229a7.5 7.5 0 0 0-7.381 13.059l26.937 15.224v18.103L77.895 82.757l-15.682-9.054.278-30.94a7.5 7.5 0 0 0-7.433-7.567h-.068a7.5 7.5 0 0 0-7.499 7.433l-.202 22.459L24.968 52.2a7.498 7.498 0 0 0-10.245 2.745 7.5 7.5 0 0 0 2.745 10.245l22.327 12.891-19.352 11.405a7.5 7.5 0 0 0-2.653 10.27 7.494 7.494 0 0 0 10.269 2.654l26.659-15.712 15.676 9.051v28.286l-15.684 9.056-26.65-15.715a7.5 7.5 0 0 0-7.619 12.921l19.347 11.407-22.32 12.887a7.5 7.5 0 0 0 7.5 12.99l22.321-12.887.202 22.461a7.5 7.5 0 0 0 7.499 7.433l.068-.001a7.5 7.5 0 0 0 7.433-7.567l-.279-30.943 15.682-9.054 24.496 14.144v18.105l-26.937 15.224a7.501 7.501 0 0 0 7.381 13.059l19.556-11.052v25.779c0 4.142 3.357 7.5 7.5 7.5s7.5-3.358 7.5-7.5v-25.779l19.556 11.052a7.498 7.498 0 0 0 10.22-2.839 7.5 7.5 0 0 0-2.839-10.22l-26.936-15.224v-18.104l24.497-14.145 15.68 9.052-.286 30.942a7.5 7.5 0 0 0 7.431 7.569l.07.001a7.5 7.5 0 0 0 7.499-7.431l.208-22.466 22.325 12.89a7.499 7.499 0 0 0 10.245-2.745 7.501 7.501 0 0 0-2.746-10.244zM85.394 95.748l24.498-14.145 24.496 14.145v28.285l-24.496 14.145-24.498-14.145V95.748z"/></svg>